PathFileType	4	(X/Y/Z)	E:/Microgravity/Neeraj_13_07_24_t02 _without_weight_pp.trc													
DataRate	CameraRate	NumFrames	NumMarkers	Units	OrigDataRate	OrigDataStartFrame	OrigNumFrames									
120	120	58	5	m	120	5294	7058									
Frame#	Time	RHAND			r_radius_styloid			RWRB			r_humerus_epicondyle			r_acromion		
		X1	Y1	Z1	X2	Y2	Z2	X3	Y3	Z3	X4	Y4	Z4	X5	Y5	Z5
																
5294	44.108	0.32763	-0.34883	0.24421	0.23074	-0.3309	0.29576	0.23132	-0.39223	0.21734	0.00746	-0.27564	0.27842	-0.01044	0.07865	0.19401
5295	44.117	0.32753	-0.34946	0.24419	0.23068	-0.33136	0.29575	0.23115	-0.3927	0.21734	0.00748	-0.27572	0.2784	-0.01045	0.07865	0.19399
5296	44.125	0.32744	-0.35009	0.24418	0.23063	-0.33181	0.29574	0.23098	-0.39316	0.21735	0.0075	-0.27579	0.27838	-0.01047	0.07864	0.19398
5297	44.133	0.32735	-0.35073	0.24418	0.23057	-0.33228	0.29574	0.23081	-0.39363	0.21735	0.00752	-0.27587	0.27837	-0.01049	0.07864	0.19397
5298	44.142	0.32725	-0.35138	0.24417	0.23051	-0.33274	0.29573	0.23064	-0.3941	0.21734	0.00754	-0.27596	0.27836	-0.01051	0.07863	0.19395
5299	44.15	0.32715	-0.35204	0.24416	0.23044	-0.33322	0.29573	0.23046	-0.39458	0.21733	0.00757	-0.27605	0.27836	-0.01053	0.07863	0.19394
5300	44.158	0.32704	-0.35271	0.24416	0.23036	-0.3337	0.29573	0.23026	-0.39506	0.21732	0.00759	-0.27614	0.27836	-0.01055	0.07862	0.19393
5301	44.167	0.32693	-0.35338	0.24416	0.23028	-0.33418	0.29573	0.23007	-0.39556	0.21731	0.00762	-0.27626	0.27837	-0.01057	0.07862	0.19392
5302	44.175	0.32682	-0.35405	0.24416	0.23019	-0.33467	0.29573	0.22986	-0.39605	0.2173	0.00766	-0.27638	0.27839	-0.01059	0.07861	0.19391
5303	44.183	0.3267	-0.35473	0.24416	0.23011	-0.33517	0.29574	0.22966	-0.39655	0.2173	0.00771	-0.27653	0.27843	-0.01062	0.07861	0.1939
5304	44.192	0.32657	-0.3554	0.24417	0.23002	-0.33567	0.29574	0.22946	-0.39705	0.2173	0.00777	-0.27672	0.27849	-0.01065	0.0786	0.19388
5305	44.2	0.32644	-0.35608	0.24417	0.22992	-0.33617	0.29574	0.22925	-0.39755	0.2173	0.00785	-0.27692	0.27857	-0.01067	0.0786	0.19387
5306	44.208	0.3263	-0.35676	0.24418	0.22983	-0.33668	0.29575	0.22904	-0.39805	0.2173	0.00791	-0.27713	0.27865	-0.0107	0.0786	0.19385
5307	44.217	0.32615	-0.35743	0.24419	0.22972	-0.33718	0.29575	0.22883	-0.39854	0.2173	0.00795	-0.27731	0.27872	-0.01074	0.07859	0.19384
5308	44.225	0.326	-0.35811	0.24419	0.22961	-0.33769	0.29576	0.2286	-0.39903	0.2173	0.00796	-0.27746	0.27877	-0.01077	0.07859	0.19382
5309	44.233	0.32584	-0.35879	0.2442	0.22948	-0.33819	0.29576	0.22838	-0.39952	0.2173	0.00795	-0.2776	0.2788	-0.0108	0.07859	0.1938
5310	44.242	0.32568	-0.35947	0.2442	0.22935	-0.33869	0.29576	0.22814	-0.40001	0.21731	0.00794	-0.27772	0.27883	-0.01084	0.07859	0.19378
5311	44.25	0.32551	-0.36015	0.2442	0.22921	-0.33917	0.29576	0.2279	-0.40051	0.2173	0.00792	-0.27782	0.27885	-0.01088	0.07859	0.19377
5312	44.258	0.32534	-0.36082	0.24419	0.22907	-0.33965	0.29575	0.22764	-0.40102	0.2173	0.0079	-0.27792	0.27886	-0.01091	0.07859	0.19375
5313	44.267	0.32517	-0.36147	0.24419	0.22893	-0.34012	0.29575	0.22737	-0.40152	0.2173	0.00788	-0.27801	0.27887	-0.01095	0.07859	0.19374
5314	44.275	0.32499	-0.36212	0.2442	0.22878	-0.34059	0.29574	0.22711	-0.40202	0.2173	0.00784	-0.2781	0.27887	-0.01098	0.07859	0.19372
5315	44.283	0.32481	-0.36275	0.2442	0.22862	-0.34105	0.29574	0.22684	-0.4025	0.21731	0.0078	-0.27818	0.27887	-0.01102	0.07859	0.1937
5316	44.292	0.32463	-0.36338	0.24421	0.22847	-0.34151	0.29574	0.22658	-0.40296	0.21731	0.00775	-0.27826	0.27886	-0.01105	0.07859	0.19369
5317	44.3	0.32443	-0.364	0.24422	0.22831	-0.34196	0.29574	0.22633	-0.4034	0.21732	0.00769	-0.27833	0.27886	-0.01109	0.0786	0.19367
5318	44.308	0.32424	-0.36461	0.24424	0.22814	-0.3424	0.29575	0.22608	-0.40383	0.21734	0.00763	-0.27841	0.27886	-0.01113	0.0786	0.19366
5319	44.317	0.32405	-0.3652	0.24425	0.22798	-0.34284	0.29577	0.22583	-0.40424	0.21735	0.00756	-0.27848	0.27885	-0.01117	0.07861	0.19365
5320	44.325	0.32385	-0.36578	0.24427	0.22781	-0.34326	0.29578	0.22558	-0.40465	0.21738	0.00749	-0.27854	0.27884	-0.01121	0.07862	0.19364
5321	44.333	0.32365	-0.36635	0.24429	0.22765	-0.34368	0.2958	0.22533	-0.40504	0.2174	0.00743	-0.27861	0.27883	-0.01126	0.07862	0.19362
5322	44.342	0.32345	-0.36692	0.24432	0.22749	-0.34408	0.29582	0.22508	-0.40544	0.21744	0.00736	-0.27867	0.27882	-0.01131	0.07863	0.19361
5323	44.35	0.32325	-0.36747	0.24435	0.22733	-0.34447	0.29584	0.22483	-0.40583	0.21747	0.00728	-0.27873	0.27881	-0.01136	0.07864	0.1936
5324	44.358	0.32306	-0.36803	0.24438	0.22717	-0.34485	0.29586	0.22458	-0.40623	0.21751	0.00721	-0.27879	0.2788	-0.01142	0.07864	0.19359
5325	44.367	0.32287	-0.36857	0.24443	0.22702	-0.34522	0.29589	0.22434	-0.40662	0.21756	0.00715	-0.27885	0.27879	-0.01148	0.07865	0.19358
5326	44.375	0.32269	-0.36912	0.24447	0.22687	-0.34559	0.29592	0.2241	-0.40703	0.21761	0.00708	-0.27891	0.27878	-0.01153	0.07866	0.19357
5327	44.383	0.32251	-0.36965	0.24453	0.22672	-0.34596	0.29595	0.22385	-0.40743	0.21766	0.00702	-0.27896	0.27877	-0.01159	0.07867	0.19356
5328	44.392	0.32234	-0.37019	0.24458	0.22658	-0.34633	0.29599	0.22361	-0.40785	0.21771	0.00696	-0.27902	0.27876	-0.01165	0.07868	0.19354
5329	44.4	0.32218	-0.37072	0.24465	0.22644	-0.3467	0.29604	0.22336	-0.40826	0.21777	0.0069	-0.27907	0.27876	-0.01172	0.07869	0.19353
5330	44.408	0.32201	-0.37124	0.24472	0.2263	-0.34707	0.29608	0.22312	-0.40866	0.21783	0.00685	-0.27913	0.27875	-0.01178	0.0787	0.19351
5331	44.417	0.32186	-0.37176	0.24479	0.22617	-0.34744	0.29613	0.22289	-0.40904	0.2179	0.0068	-0.27918	0.27875	-0.01183	0.07871	0.1935
5332	44.425	0.3217	-0.37227	0.24487	0.22603	-0.34781	0.29618	0.22267	-0.40941	0.21797	0.00676	-0.27923	0.27875	-0.01189	0.07872	0.19348
5333	44.433	0.32155	-0.37277	0.24495	0.2259	-0.34818	0.29622	0.22245	-0.40976	0.21805	0.00671	-0.27927	0.27876	-0.01194	0.07873	0.19347
5334	44.442	0.32139	-0.37326	0.24503	0.22577	-0.34854	0.29628	0.22225	-0.41011	0.21812	0.00667	-0.27932	0.27876	-0.01199	0.07874	0.19345
5335	44.45	0.32124	-0.37375	0.24511	0.22564	-0.34889	0.29633	0.22205	-0.41045	0.21819	0.00663	-0.27937	0.27876	-0.01204	0.07875	0.19344
5336	44.458	0.32109	-0.37423	0.24519	0.22551	-0.34923	0.29639	0.22185	-0.41078	0.21826	0.00659	-0.27942	0.27877	-0.01209	0.07876	0.19342
5337	44.467	0.32095	-0.37471	0.24527	0.22538	-0.34957	0.29645	0.22166	-0.41112	0.21833	0.00655	-0.27946	0.27878	-0.01214	0.07877	0.19341
5338	44.475	0.32081	-0.37518	0.24535	0.22525	-0.3499	0.29651	0.22148	-0.41146	0.2184	0.00651	-0.2795	0.27879	-0.01219	0.07877	0.19339
5339	44.483	0.32067	-0.37565	0.24542	0.22513	-0.35022	0.29657	0.22129	-0.4118	0.21847	0.00647	-0.27954	0.2788	-0.01224	0.07879	0.19338
5340	44.492	0.32053	-0.37612	0.2455	0.225	-0.35054	0.29663	0.22111	-0.41213	0.21854	0.00644	-0.27958	0.27881	-0.01229	0.0788	0.19336
5341	44.5	0.32039	-0.37659	0.24558	0.22487	-0.35085	0.29668	0.22093	-0.41246	0.2186	0.00641	-0.27962	0.27881	-0.01234	0.07882	0.19335
5342	44.508	0.32025	-0.37704	0.24565	0.22475	-0.35116	0.29674	0.22075	-0.41279	0.21867	0.00638	-0.27966	0.27882	-0.01239	0.07883	0.19333
5343	44.517	0.3201	-0.3775	0.24573	0.22463	-0.35147	0.29679	0.22057	-0.41312	0.21873	0.00635	-0.27969	0.27883	-0.01244	0.07885	0.19331
5344	44.525	0.31996	-0.37794	0.2458	0.22451	-0.35177	0.29685	0.2204	-0.41344	0.21878	0.00632	-0.27972	0.27883	-0.01249	0.07887	0.19329
5345	44.533	0.31982	-0.37837	0.24588	0.22439	-0.35208	0.2969	0.22022	-0.41377	0.21884	0.00629	-0.27976	0.27884	-0.01254	0.07889	0.19327
5346	44.542	0.31969	-0.37879	0.24595	0.22427	-0.35238	0.29695	0.22004	-0.41409	0.21889	0.00626	-0.27979	0.27884	-0.01259	0.0789	0.19326
5347	44.55	0.31956	-0.3792	0.24603	0.22416	-0.35268	0.29701	0.21986	-0.41442	0.21895	0.00623	-0.27983	0.27885	-0.01264	0.07892	0.19324
5348	44.558	0.31943	-0.37959	0.24611	0.22405	-0.35297	0.29706	0.21969	-0.41474	0.219	0.0062	-0.27986	0.27885	-0.01269	0.07893	0.19323
5349	44.567	0.31931	-0.37997	0.24619	0.22395	-0.35326	0.29711	0.21953	-0.41505	0.21905	0.00617	-0.27989	0.27885	-0.01273	0.07895	0.19322
5350	44.575	0.31918	-0.38035	0.24627	0.22385	-0.35354	0.29716	0.21937	-0.41536	0.21911	0.00614	-0.27992	0.27886	-0.01278	0.07896	0.1932
5351	44.583	0.31907	-0.38071	0.24635	0.22376	-0.35381	0.29721	0.21921	-0.41566	0.21916	0.00611	-0.27995	0.27886	-0.01282	0.07897	0.19319
